<?xml version="1.0" standalone="no"?>
<!DOCTYPE svg PUBLIC "-//W3C//DTD SVG 20010904//EN"
 "http://www.w3.org/TR/2001/REC-SVG-20010904/DTD/svg10.dtd">
<svg version="1.0" xmlns="http://www.w3.org/2000/svg"
 width="700.000000pt" height="700.000000pt" viewBox="0 0 700.000000 700.000000"
 preserveAspectRatio="xMidYMid meet">
<metadata>
Created by potrace 1.11, written by Peter Selinger 2001-2013
</metadata>
<g transform="translate(0.000000,700.000000) scale(0.100000,-0.100000)"
fill="#000000" stroke="none">
<path d="M3299 6996 c-2 -2 -42 -6 -89 -9 -78 -6 -206 -22 -261 -32 -13 -3
-41 -7 -63 -11 -149 -22 -405 -92 -585 -159 -377 -141 -659 -300 -981 -554
-101 -80 -396 -369 -497 -486 -376 -438 -648 -1009 -762 -1595 -28 -144 -35
-195 -50 -365 -9 -92 -7 -546 2 -600 3 -16 8 -61 12 -100 11 -114 34 -240 75
-410 152 -626 459 -1165 935 -1640 294 -294 576 -501 923 -674 249 -125 609
-248 862 -296 169 -32 236 -42 370 -52 122 -10 498 -10 615 0 87 8 112 11 193
22 20 4 55 8 77 11 22 3 81 15 130 25 50 11 101 22 115 25 85 16 356 103 460
146 25 10 59 24 75 31 144 57 652 346 695 396 3 3 39 31 80 62 100 75 133 104
268 234 334 320 547 606 742 995 134 266 245 593 294 860 3 19 8 45 10 56 2
12 7 39 10 60 3 22 8 50 11 64 2 14 7 52 10 85 4 33 9 71 11 85 9 46 11 554 3
620 -4 36 -10 94 -14 130 -7 68 -42 282 -51 312 -3 10 -7 29 -10 42 -17 96
-111 406 -149 491 -7 17 -33 75 -56 130 -107 248 -261 505 -446 743 -37 48
-72 92 -78 98 -5 6 -37 42 -70 79 -151 172 -400 395 -595 535 -344 246 -734
432 -1120 534 -81 21 -132 32 -275 62 -11 2 -38 6 -60 9 -22 3 -51 7 -65 10
-13 2 -54 7 -90 11 -36 3 -76 8 -90 10 -28 6 -515 15 -521 10z"/>
</g>
</svg>
