<?xml version="1.0" encoding="UTF-8" standalone="no"?>
<svg
   xmlns:dc="http://purl.org/dc/elements/1.1/"
   xmlns:cc="http://creativecommons.org/ns#"
   xmlns:rdf="http://www.w3.org/1999/02/22-rdf-syntax-ns#"
   xmlns:svg="http://www.w3.org/2000/svg"
   xmlns="http://www.w3.org/2000/svg"
   xmlns:sodipodi="http://sodipodi.sourceforge.net/DTD/sodipodi-0.dtd"
   xmlns:inkscape="http://www.inkscape.org/namespaces/inkscape"
   viewBox="0 0 200 200.86775"
   height="200.86775"
   width="200"
   version="1.1"
   id="svg4306"
   inkscape:version="0.91 r13725"
   sodipodi:docname="pokeball.svg">
  <sodipodi:namedview
     pagecolor="#ffffff"
     bordercolor="#666666"
     borderopacity="1"
     objecttolerance="10"
     gridtolerance="10"
     guidetolerance="10"
     inkscape:pageopacity="0"
     inkscape:pageshadow="2"
     inkscape:window-width="1440"
     inkscape:window-height="855"
     id="namedview6"
     showgrid="false"
     fit-margin-top="0"
     fit-margin-left="0"
     fit-margin-right="0"
     fit-margin-bottom="0"
     inkscape:zoom="0.4963375"
     inkscape:cx="436.51458"
     inkscape:cy="411.99281"
     inkscape:window-x="0"
     inkscape:window-y="1"
     inkscape:window-maximized="1"
     inkscape:current-layer="svg4306" />
  <metadata
     id="metadata4312">
    <rdf:RDF>
      <cc:Work
         rdf:about="">
        <dc:format>image/svg+xml</dc:format>
        <dc:type
           rdf:resource="http://purl.org/dc/dcmitype/StillImage" />
        <dc:title></dc:title>
      </cc:Work>
    </rdf:RDF>
  </metadata>
  <defs
     id="defs4310" />
  <path
     id="path4316"
     d="M 95.533443,200.81268 C 84.643467,200.0954 76.367331,198.54092 67.7887,195.60142 62.711173,193.86157 60.325016,192.85813 55.060437,190.24885 45.615235,185.5675 37.925171,180.12897 30.207535,172.67246 13.862645,156.88062 3.5806617,136.6408 0.44837788,114.09228 0.20177576,112.31706 0,110.80469 0,110.73145 c 0,-0.0732 13.225237,-0.13213 29.389403,-0.13093 l 29.389408,0.003 0.975901,3.06448 c 1.569671,4.92903 4.838309,10.81272 7.793349,14.02836 0.66265,0.7211 1.041059,1.36652 0.922323,1.57316 -0.110733,0.19272 -0.09729,0.25626 0.02989,0.14119 0.127174,-0.11507 1.125428,0.63433 2.218335,1.66533 1.092907,1.03099 2.779288,2.46023 3.747515,3.17608 0.968228,0.71586 1.725045,1.42404 1.681816,1.57376 -0.04323,0.14971 0.04059,0.19854 0.186257,0.10854 0.145668,-0.09 1.134317,0.36453 2.196999,1.01013 11.823686,7.18313 26.594634,7.84887 39.586114,1.78413 8.04149,-3.75394 15.66694,-11.12897 19.59603,-18.95248 1.26827,-2.52537 2.90363,-6.73238 3.17097,-8.15749 l 0.1913,-1.01969 29.46202,0 29.46204,0 -0.1935,1.64466 c -1.61111,13.69356 -6.4266,27.90095 -13.40295,39.5434 -3.48268,5.81208 -10.01604,14.53371 -10.76144,14.36584 -0.19193,-0.0432 -0.26685,0.0543 -0.16649,0.21667 0.1974,0.3194 -1.58466,2.27916 -5.86052,6.44492 -15.69363,15.28952 -36.45767,25.05248 -58.3515,27.43608 -3.94064,0.42901 -12.896234,0.74947 -15.729825,0.56284 z m 0.836516,-75.31543 c -6.110342,-0.86397 -12.5534,-4.56627 -16.221951,-9.32143 -7.521213,-9.74897 -7.209756,-22.671637 0.781345,-32.418437 2.642235,-3.22276 8.148031,-6.59433 12.744906,-7.80457 3.142517,-0.82735 8.796241,-0.89665 11.995341,-0.14703 8.96983,2.10182 15.99885,8.70447 18.62841,17.49843 0.65354,2.1856 0.77193,3.13296 0.80296,6.42499 0.0414,4.389277 -0.10128,5.619157 -0.97867,8.437817 -2.0138,6.46948 -7.06638,12.23348 -13.28635,15.15712 -4.01554,1.88747 -10.0621,2.79579 -14.465991,2.17311 z M 0.16946601,88.931623 C 3.339826,61.758653 17.263841,37.321483 39.185869,20.456343 c 2.683196,-2.06424 6.797564,-4.85646 9.00989,-6.11454 5.218093,-2.9674 7.302805,-4.0476 10.726066,-5.5577896 21.166786,-9.33779 44.036565,-11.2718 66.282175,-5.60525 13.44192,3.42402 27.17484,10.3662496 38.09633,19.2583796 4.35415,3.54508 12.43091,11.69623 15.53142,15.67447 11.72549,15.04488 18.81572,32.12733 20.97516,50.53533 l 0.19309,1.64602 -29.38343,-0.0728 -29.38344,-0.0728 -1.19546,-3.43312 c -3.71716,-10.67484 -11.16543,-19.16991 -21.17814,-24.15458 -19.950433,-9.93202 -43.930734,-2.82312 -55.384733,16.41868 -1.681857,2.82539 -3.626016,7.34663 -4.280021,9.95339 l -0.340863,1.35864 -29.421469,0 -29.4214834,0 0.15850541,-1.35864 z"
     style="fill:#cccccc"
     inkscape:connector-curvature="0" />
</svg>
