<?xml version="1.0" encoding="UTF-8" standalone="no"?>
<svg
   xmlns:dc="http://purl.org/dc/elements/1.1/"
   xmlns:cc="http://creativecommons.org/ns#"
   xmlns:rdf="http://www.w3.org/1999/02/22-rdf-syntax-ns#"
   xmlns:svg="http://www.w3.org/2000/svg"
   xmlns="http://www.w3.org/2000/svg"
   viewBox="0 0 937.5 1250"
   height="1250"
   width="937.5"
   version="1.1"
   id="svg4306">
  <metadata
     id="metadata4312">
    <rdf:RDF>
      <cc:Work
         rdf:about="">
        <dc:format>image/svg+xml</dc:format>
        <dc:type
           rdf:resource="http://purl.org/dc/dcmitype/StillImage" />
        <dc:title></dc:title>
      </cc:Work>
    </rdf:RDF>
  </metadata>
  <defs
     id="defs4310" />
  <path
     id="path4316"
     d="m 449.73546,1036.7548 c -47.59135,-3.1346 -83.7597,-9.928 -121.25001,-22.7742 -22.1898,-7.6035 -32.61778,-11.9887 -55.62503,-23.39179 -41.2774,-20.4584 -74.8845,-44.22589 -108.6121,-76.81226 C 92.81792,844.76309 47.883617,756.311 34.194917,657.76953 c -1.0777,-7.75801 -1.9595,-14.36738 -1.9595,-14.6875 0,-0.32011 57.796903,-0.57762 128.437503,-0.57223 l 128.43753,0.01 4.26488,13.39241 c 6.85977,21.54082 21.14437,47.25371 34.05848,61.3067 2.89591,3.1513 4.54963,5.97195 4.03073,6.875 -0.48395,0.84222 -0.42517,1.11989 0.13062,0.61702 0.55579,-0.50285 4.91834,2.77217 9.69456,7.27782 4.77622,4.50563 12.14604,10.7517 16.37738,13.88013 4.23135,3.12843 7.53879,6.22335 7.34987,6.87762 -0.1889,0.65425 0.17739,0.86765 0.81398,0.47421 0.6366,-0.39344 4.95719,1.59307 9.60132,4.41447 51.67185,31.39174 116.22379,34.30108 172.99915,7.79703 35.14289,-16.40551 68.46761,-48.63585 85.63848,-82.82611 5.54262,-11.03637 12.68945,-29.42187 13.85782,-35.64984 l 0.83596,-4.45625 128.75491,0 128.75492,0 -0.84565,7.1875 c -7.04087,59.84357 -28.0855,121.93264 -58.57351,172.8125 -15.22001,25.39991 -43.77212,63.51515 -47.02961,62.78153 -0.83881,-0.18891 -1.16625,0.23718 -0.72764,0.94688 0.86268,1.39584 -6.92525,9.96037 -25.61165,28.1656 -68.58421,66.81819 -159.3272,109.48428 -255.00756,119.90108 -17.22135,1.8749 -56.35908,3.2753 -68.74243,2.4597 z m 3.65574,-329.14329 c -26.7034,-3.77572 -54.86084,-19.95551 -70.89313,-40.7365 -32.86919,-42.60494 -31.50806,-99.07955 3.41463,-141.67497 11.54709,-14.08408 35.60851,-28.81852 55.69776,-34.10753 13.73342,-3.61567 38.44131,-3.91854 52.42201,-0.64256 39.19992,9.18537 69.91812,38.04024 81.40983,76.4716 2.85609,9.55151 3.3735,13.69167 3.5091,28.07846 0.1808,19.18206 -0.4426,24.55685 -4.27696,36.875 -8.80071,28.2729 -30.88148,53.46271 -58.06399,66.2396 -17.54869,8.24861 -43.97335,12.21816 -63.21925,9.4969 z M 32.976017,547.81251 c 13.8551,-118.7513 74.705803,-225.54655 170.509403,-299.25055 11.7261,-9.02113 29.7067,-21.22368 39.375,-26.72178 22.8041,-12.96808 31.9147,-17.68878 46.87503,-24.2886 92.50304,-40.80797 192.44848,-49.26001 289.66621,-24.49605 58.74388,14.96364 118.75944,45.30258 166.48853,84.16292 19.02849,15.49272 54.3255,51.11486 67.87531,68.50051 51.24276,65.74914 82.22845,140.4028 91.66563,220.84944 l 0.84385,7.19338 -128.4114,-0.31838 -128.41142,-0.31839 -5.22443,-15.0034 c -16.24474,-46.65115 -48.79512,-83.77626 -92.55267,-105.56029 -87.18732,-43.4049 -191.98598,-12.33755 -242.04222,71.75291 -7.35005,12.3475 -15.84641,32.10619 -18.70454,43.49828 l -1.48964,5.9375 -128.57764,0 -128.577703,0 0.6927,-5.9375 z"
     style="fill:#000000" />
</svg>
